{"title":"Rubber's Lover-XviD-JAP.Mp3-Sub.ITA.ENG-Cyberpunk-TNTVillage","uid":6449772,"size":734271856,"categoryP":"video","categoryS":"movies","magnet":"?xt=urn:btih:202063d68d7602c9b7880b496b2c77ce64ccdd9a&amp;dn=Rubber%5C%27s+Lover-XviD-JAP.Mp3-Sub.ITA.ENG-Cyberpunk-TNTVillage&amp;tr=udp%3A%2F%2Ftracker.openbittorrent.com%3A80&amp;tr=udp%3A%2F%2Fopen.demonii.com%3A1337&amp;tr=udp%3A%2F%2Ftracker.coppersurfer.tk%3A6969&amp;tr=udp%3A%2F%2Fexodus.desync.com%3A6969","seeders":5,"leechers":0,"uploader":"sohlw","files":3,"time":1307382859,"description":"General\nFormat                           : AVI\nFormat/Info                      : Audio Video Interleave\nFile size                        : 700 MiB\nDuration                         : 1h 30mn\nOverall bit rate                 : 1 081 Kbps\nMovie name                       : Rubbers.Lover.1997.DVDRip.XviD-SAPHiRE\nSubject                          : Rubbers.Lover.1997.DVDRip.XviD-SAPHiRE\nWriting application              : Nandub v1.0rc2\nWriting library                  : Nandub build 1852/release\n\nVideo\nID                               : 0\nFormat                           : MPEG-4 Visual\nFormat profile                   : Simple@L3\nFormat settings, BVOP            : 1\nFormat settings, QPel            : No\nFormat settings, GMC             : No warppoints\nFormat settings, Matrix          : Default (MPEG)\nCodec ID                         : XVID\nCodec ID/Hint                    : XviD\nDuration                         : 1h 30mn\nBit rate                         : 914 Kbps\nWidth                            : 512 pixels\nHeight                           : 384 pixels\nDisplay aspect ratio             : 4:3\nFrame rate                       : 23.976 fps\nColor space                      : YUV\nChroma subsampling               : 4:2:0\nBit depth                        : 8 bits\nScan type                        : Progressive\nCompression mode                 : Lossy\nBits/(Pixel*Frame)               : 0.194\nStream size                      : 592 MiB (85%)\nWriting library                  : XviD 1.0.2 (UTC 2004-08-29)\n\nAudio\nID                               : 1\nFormat                           : MPEG Audio\nFormat version                   : Version 1\nFormat profile                   : Layer 3\nMode                             : Joint stereo\nMode extension                   : MS Stereo\nCodec ID                         : 55\nCodec ID/Hint                    : MP3\nDuration                         : 1h 30mn\nBit rate mode                    : Variable\nBit rate                         : 155 Kbps\nMinimum bit rate                 : 128 Kbps\nChannel(s)                       : 2 channels\nSampling rate                    : 48.0 KHz\nCompression mode                 : Lossy\nStream size                      : 100 MiB (14%)\nAlignment                        : Aligned on interleaves\nInterleave, duration             : 24 ms (0.58 video frame)\nInterleave, preload duration     : 397 ms\nWriting library                  : LAME3.96r\nEncoding settings                : -m j -V 2 -q 3 -lowpass 19 --vbr-old -b 128\n\n","torrent":{"xt":"urn:btih:202063d68d7602c9b7880b496b2c77ce64ccdd9a","amp;dn":"Rubber%5C%27s+Lover-XviD-JAP.Mp3-Sub.ITA.ENG-Cyberpunk-TNTVillage","amp;tr":["udp%3A%2F%2Ftracker.openbittorrent.com%3A80","udp%3A%2F%2Fopen.demonii.com%3A1337","udp%3A%2F%2Ftracker.coppersurfer.tk%3A6969","udp%3A%2F%2Fexodus.desync.com%3A6969"],"infoHash":"202063d68d7602c9b7880b496b2c77ce64ccdd9a","infoHashBuffer":{"type":"Buffer","data":[32,32,99,214,141,118,2,201,183,136,11,73,107,44,119,206,100,204,221,154]},"announce":[],"urlList":[]}}